<svg width="56" height="55" viewBox="0 0 56 55" fill="none" xmlns="http://www.w3.org/2000/svg">
<path d="M44.8838 27.5C44.8838 36.8235 37.3235 44.3828 28.0019 44.3828C18.6803 44.3828 11.1182 36.8235 11.1182 27.5C11.1182 18.1774 18.6803 10.6162 28.0019 10.6162C37.3235 10.6162 44.8838 18.1774 44.8838 27.5Z" fill="#FFCA72"/>
<path d="M34.5749 31.2552C33.5202 33.8814 30.9596 35.7418 27.9537 35.7418C24.9505 35.7418 22.39 33.8814 21.3361 31.2552H34.5749Z" fill="#FFFFFD"/>
<path d="M28.0019 45.3311C18.1691 45.3311 10.1699 37.3319 10.1699 27.5C10.1699 17.6672 18.1691 9.66797 28.0019 9.66797C37.8329 9.66797 45.8321 17.6672 45.8321 27.5C45.8321 37.3319 37.8329 45.3311 28.0019 45.3311ZM28.0019 11.5645C19.2151 11.5645 12.0664 18.7132 12.0664 27.5C12.0664 36.2864 19.2151 43.4345 28.0019 43.4345C36.7883 43.4345 43.9355 36.2864 43.9355 27.5C43.9355 18.7132 36.7883 11.5645 28.0019 11.5645Z" fill="#37474F"/>
<path d="M55.5 28.4483H50.3058V26.5517H55.5V28.4483Z" fill="#37474F"/>
<path d="M5.69515 28.4483H0.5V26.5517H5.69515V28.4483Z" fill="#37474F"/>
<path d="M29.0557 5.19329H27.1592V0H29.0557V5.19329Z" fill="#37474F"/>
<path d="M11.6844 13.3106L8.04688 9.6707L9.38872 8.32979L13.0262 11.9696L11.6844 13.3106Z" fill="#37474F"/>
<path d="M44.3188 13.3106L42.9779 11.9696L46.6136 8.32979L47.9564 9.6707L44.3188 13.3106Z" fill="#37474F"/>
<path d="M29.0557 55H27.1592V49.8058H29.0557V55Z" fill="#37474F"/>
<path d="M9.38872 46.6692L8.04688 45.3283L11.6844 41.689L13.0262 43.0299L9.38872 46.6692Z" fill="#37474F"/>
<path d="M46.6136 46.6692L42.9779 43.0299L44.3188 41.689L47.9564 45.3283L46.6136 46.6692Z" fill="#37474F"/>
<path d="M36.5373 24.281C36.014 24.281 35.589 23.8565 35.589 23.3328C35.589 22.654 35.025 22.102 34.3305 22.102C33.635 22.102 33.0692 22.654 33.0692 23.3328C33.0692 23.8565 32.6451 24.281 32.121 24.281C31.5968 24.281 31.1727 23.8565 31.1727 23.3328C31.1727 21.6085 32.5895 20.2055 34.3305 20.2055C36.0696 20.2055 37.4856 21.6085 37.4856 23.3328C37.4856 23.8565 37.0604 24.281 36.5373 24.281Z" fill="#37474F"/>
<path d="M23.88 24.281C23.3564 24.281 22.9318 23.8565 22.9318 23.3328C22.9318 22.654 22.3674 22.102 21.6733 22.102C20.9778 22.102 20.412 22.654 20.412 23.3328C20.412 23.8565 19.9874 24.281 19.4637 24.281C18.9401 24.281 18.5154 23.8565 18.5154 23.3328C18.5154 21.6085 19.9318 20.2055 21.6733 20.2055C23.4129 20.2055 24.8283 21.6085 24.8283 23.3328C24.8283 23.8565 24.4037 24.281 23.88 24.281Z" fill="#37474F"/>
<path d="M27.9537 36.6901C24.638 36.6901 21.695 34.6954 20.4559 31.608C20.3388 31.3163 20.3745 30.9847 20.5504 30.7245C20.7268 30.4634 21.0213 30.3069 21.3362 30.3069H34.575C34.8899 30.3069 35.1843 30.4634 35.3603 30.7245C35.5371 30.9847 35.5723 31.3163 35.4547 31.608C34.2157 34.6954 31.2709 36.6901 27.9537 36.6901ZM22.9257 32.2034C24.0685 33.812 25.9196 34.7936 27.9537 34.7936C29.9892 34.7936 31.8413 33.812 32.9849 32.2034H22.9257Z" fill="#37474F"/>
</svg>
